<svg width="88" height="29" viewBox="0 0 88 29" fill="none" xmlns="http://www.w3.org/2000/svg">
<g clip-path="url(#clip0_45_250)">
<path d="M7.8 12.16C7.57 12.59 7.35 13.02 7.16 13.46C7.07 13.66 6.98 13.89 6.89 14.12C6.8 13.89 6.7 13.67 6.61 13.47C6.41 13.03 6.19 12.59 5.95 12.15L3.49 7.64999H0L5.39 16.73V22.2H8.35V16.73L13.65 7.64999H10.18L7.8 12.15V12.16Z" fill="black"/>
<path d="M21.43 17.62C21.43 18.11 21.34 18.52 21.16 18.87C20.98 19.22 20.73 19.47 20.42 19.65C20.11 19.83 19.74 19.91 19.33 19.91C18.72 19.91 18.24 19.72 17.89 19.34C17.54 18.96 17.37 18.43 17.37 17.75V11.43H14.46V18.27C14.46 19.12 14.61 19.86 14.92 20.47C15.23 21.08 15.66 21.56 16.22 21.88C16.78 22.2 17.43 22.37 18.18 22.37C19.1 22.37 19.85 22.12 20.44 21.62C20.89 21.24 21.26 20.73 21.54 20.1L21.57 22.21H24.35V11.42H21.43V17.61V17.62Z" fill="black"/>
<path d="M34.86 11.76C34.3 11.43 33.65 11.27 32.9 11.27C31.98 11.27 31.22 11.52 30.63 12.02C30.18 12.4 29.82 12.91 29.54 13.53L29.51 11.43H26.74V22.21H29.65V16.02C29.65 15.53 29.74 15.11 29.92 14.77C30.1 14.43 30.35 14.17 30.66 13.99C30.97 13.81 31.34 13.72 31.75 13.72C32.37 13.72 32.85 13.91 33.2 14.29C33.55 14.67 33.72 15.2 33.72 15.89V22.21H36.63V15.37C36.63 14.51 36.48 13.77 36.17 13.16C35.86 12.55 35.43 12.08 34.87 11.75L34.86 11.76Z" fill="black"/>
<path d="M39.01 22.73C39.01 23.15 38.91 23.47 38.72 23.67C38.53 23.87 38.2 23.98 37.73 23.98H37.28V26.28H38C38.82 26.28 39.53 26.16 40.11 25.91C40.69 25.66 41.15 25.29 41.46 24.78C41.77 24.27 41.93 23.62 41.92 22.82V11.42H39V22.73H39.01Z" fill="black"/>
<path d="M40.48 7C40.03 7 39.65 7.15 39.33 7.44C39.01 7.73 38.86 8.09 38.86 8.51C38.86 8.93 39.02 9.29 39.33 9.58C39.64 9.87 40.03 10.02 40.48 10.02C40.93 10.02 41.31 9.87 41.62 9.58C41.93 9.29 42.09 8.93 42.09 8.51C42.09 8.09 41.93 7.73 41.62 7.44C41.31 7.15 40.93 7 40.48 7Z" fill="black"/>
<path d="M45.79 7C45.34 7 44.96 7.15 44.64 7.44C44.32 7.73 44.17 8.09 44.17 8.51C44.17 8.93 44.33 9.29 44.64 9.58C44.95 9.87 45.34 10.02 45.79 10.02C46.24 10.02 46.62 9.87 46.93 9.58C47.24 9.29 47.4 8.93 47.4 8.51C47.4 8.09 47.24 7.73 46.93 7.44C46.62 7.15 46.24 7 45.79 7Z" fill="black"/>
<path d="M47.25 11.42H44.34V22.2H47.25V11.42Z" fill="black"/>
<path d="M60.45 17.86C60.45 18.55 60.28 19.07 59.95 19.43C59.62 19.79 59.16 19.97 58.58 19.97C58 19.97 57.53 19.79 57.19 19.43C56.85 19.07 56.68 18.55 56.68 17.86V16.95H53.73V17.83C53.73 19.29 54.16 20.42 55.03 21.21C55.9 22 57.08 22.4 58.58 22.4C60.08 22.4 61.26 22 62.12 21.21C62.98 20.42 63.41 19.29 63.41 17.83V7.64999H60.44V17.86H60.45Z" fill="black"/>
<path d="M72.84 17.62C72.84 18.11 72.75 18.52 72.57 18.87C72.39 19.22 72.14 19.47 71.83 19.65C71.52 19.83 71.15 19.91 70.74 19.91C70.13 19.91 69.65 19.72 69.3 19.34C68.95 18.96 68.78 18.43 68.78 17.75V11.43H65.87V18.27C65.87 19.12 66.02 19.86 66.33 20.47C66.64 21.08 67.07 21.56 67.63 21.88C68.19 22.2 68.84 22.37 69.59 22.37C70.51 22.37 71.26 22.12 71.85 21.62C72.3 21.24 72.67 20.73 72.95 20.1L72.98 22.21H75.76V11.42H72.84V17.61V17.62Z" fill="black"/>
<path d="M87.58 13.16C87.27 12.55 86.84 12.08 86.28 11.75C85.72 11.42 85.07 11.26 84.32 11.26C83.4 11.26 82.64 11.51 82.05 12.01C81.6 12.39 81.24 12.9 80.96 13.52L80.93 11.42H78.16V22.2H81.07V16.01C81.07 15.52 81.16 15.1 81.34 14.76C81.52 14.42 81.77 14.16 82.08 13.98C82.39 13.8 82.76 13.71 83.17 13.71C83.79 13.71 84.27 13.9 84.62 14.28C84.97 14.66 85.14 15.19 85.14 15.88V22.2H88.05V15.36C88.05 14.5 87.9 13.76 87.59 13.15L87.58 13.16Z" fill="black"/>
</g>
<defs>
<clipPath id="clip0_45_250">
<rect width="88" height="29" fill="white"/>
</clipPath>
</defs>
</svg>
