<svg width="102" height="29" viewBox="0 0 102 29" fill="none" xmlns="http://www.w3.org/2000/svg">
<g clip-path="url(#clip0_45_252)">
<path d="M14.4395 9.66001C14.5995 9.97001 14.6695 10.3 14.6595 10.66C14.6495 11.02 14.5895 11.37 14.4795 11.7C14.3695 12.03 14.1995 12.37 13.9495 12.71C13.6995 13.05 13.4495 13.36 13.1995 13.64C12.7195 14.15 12.1795 14.58 11.5895 14.94C10.9995 15.3 10.3595 15.55 9.67946 15.7C9.56946 15.73 9.50946 15.74 9.47946 15.74C9.36946 15.77 9.30946 15.82 9.29946 15.9C9.28946 15.98 9.29946 16.05 9.35946 16.12C9.56946 16.4 9.77946 16.69 9.98946 17C10.1995 17.31 10.3795 17.63 10.5295 17.96C10.6795 18.29 10.8095 18.64 10.8995 18.99C10.9895 19.34 11.0395 19.7 11.0395 20.06C11.0395 20.69 10.8795 21.19 10.5495 21.57C10.2195 21.95 9.76946 22.23 9.17946 22.4C8.80946 22.51 8.41946 22.57 8.01946 22.58C7.61946 22.59 7.22946 22.58 6.83946 22.54C6.54946 22.49 6.24946 22.42 5.94946 22.33C5.64946 22.24 5.36946 22.1 5.11946 21.9C4.72946 21.59 4.48946 21.21 4.39946 20.75C4.30946 20.29 4.30946 19.83 4.41946 19.38C4.54946 18.78 4.77946 18.21 5.10946 17.68C5.43946 17.15 5.80946 16.67 6.23946 16.24C6.27946 16.21 6.30946 16.18 6.33946 16.14C6.37946 16.01 6.33946 15.91 6.23946 15.86H6.19946V15.84C6.19946 15.84 6.19946 15.82 6.17946 15.82H6.11946C5.52946 15.75 4.88946 15.57 4.18946 15.27C3.48946 14.97 2.83946 14.59 2.23946 14.12C1.63946 13.65 1.12946 13.12 0.709464 12.53C0.289464 11.94 0.0694635 11.32 0.0394635 10.66C0.00946355 10.21 0.109464 9.78001 0.339464 9.38001C0.569464 8.98001 0.879464 8.68001 1.27946 8.48001C1.59946 8.32001 1.93946 8.22001 2.30946 8.19001C2.67946 8.16001 3.02946 8.16001 3.37946 8.19001C3.69946 8.23001 4.02946 8.31001 4.35946 8.42001C4.68946 8.53001 5.00946 8.68001 5.30946 8.87001C5.60946 9.06001 5.87946 9.27001 6.11946 9.52001C6.35946 9.77001 6.54946 10.04 6.69946 10.35C6.78946 10.54 6.86946 10.73 6.92946 10.94C6.98946 11.15 7.04946 11.36 7.11946 11.57C7.22946 11.96 7.30946 12.35 7.36946 12.76C7.42946 13.17 7.48946 13.57 7.55946 13.97C7.58946 14.08 7.65946 14.13 7.77946 14.13C7.90946 14.13 7.97946 14.08 7.97946 13.97L7.99946 13.85C8.10946 13.18 8.23946 12.53 8.40946 11.89C8.57946 11.25 8.86946 10.65 9.27946 10.09C9.63946 9.58001 10.0395 9.18001 10.4895 8.89001C10.9395 8.60001 11.4795 8.45001 12.1195 8.45001C12.5595 8.45001 12.9995 8.55001 13.4495 8.74001C13.8995 8.93001 14.2295 9.24001 14.4395 9.65001V9.66001Z" fill="black"/>
<path d="M27.7095 14.48C27.7595 14.92 27.8095 15.37 27.8395 15.82C27.8695 16.27 27.8795 16.71 27.8395 17.14C27.8095 17.73 27.7295 18.3 27.5995 18.85C27.4695 19.4 27.2595 19.91 26.9795 20.37C26.6995 20.83 26.3395 21.23 25.9095 21.57C25.4795 21.91 24.9495 22.16 24.3195 22.32C23.8895 22.43 23.4695 22.49 23.0495 22.51C22.6295 22.53 22.2095 22.52 21.7795 22.48C21.0495 22.4 20.4095 22.22 19.8595 21.93C19.3095 21.64 18.8395 21.28 18.4495 20.83C18.0595 20.38 17.7295 19.88 17.4695 19.32C17.2095 18.76 16.9895 18.17 16.8095 17.56C16.6295 16.95 16.4895 16.32 16.3895 15.68C16.2895 15.04 16.1995 14.42 16.1195 13.82C16.0395 13.22 15.9895 12.61 15.9695 12C15.9495 11.39 15.9895 10.78 16.0995 10.18C16.1695 9.87 16.2495 9.57 16.3595 9.28C16.4695 8.99 16.6495 8.75 16.8995 8.58C17.0895 8.46 17.2895 8.38 17.5195 8.35C17.7495 8.32 17.9695 8.32 18.1795 8.35C18.5795 8.44 18.9395 8.65 19.2495 8.96C19.5595 9.27 19.8495 9.65 20.0995 10.1C20.3495 10.55 20.5695 11.04 20.7595 11.57C20.9495 12.1 21.1095 12.64 21.2495 13.17C21.3895 13.7 21.4995 14.21 21.5895 14.7C21.6795 15.19 21.7495 15.6 21.7995 15.95L21.8995 16.67C21.9095 16.74 21.9195 16.8 21.9295 16.86C21.9395 16.92 21.9495 16.98 21.9595 17.05C21.7595 17.09 21.5595 17.15 21.3695 17.22C21.1795 17.29 20.9895 17.38 20.8195 17.47C20.7495 17.51 20.7195 17.56 20.7095 17.61C20.6995 17.66 20.7095 17.71 20.7395 17.76C20.7695 17.81 20.8095 17.84 20.8595 17.86C20.9095 17.88 20.9695 17.86 21.0395 17.83C21.2295 17.74 21.4195 17.66 21.6195 17.6C21.8195 17.54 22.0295 17.5 22.2395 17.47C22.7095 17.4 23.1695 17.42 23.6395 17.53C23.7895 17.56 23.8795 17.5 23.9095 17.36C23.9395 17.22 23.8895 17.13 23.7395 17.09C23.5295 17.02 23.3095 16.99 23.0995 16.98C22.8895 16.98 22.6695 16.98 22.4395 16.99C22.4395 16.35 22.4195 15.71 22.3895 15.07C22.3595 14.43 22.3495 13.79 22.3895 13.15C22.3895 12.88 22.3995 12.53 22.4295 12.09C22.4595 11.65 22.5095 11.2 22.5795 10.74C22.6495 10.28 22.7595 9.86 22.9095 9.47C23.0595 9.08 23.2595 8.81 23.5095 8.65C23.7495 8.49 24.0295 8.41 24.3495 8.41C24.7195 8.41 25.0595 8.52 25.3695 8.74C25.6795 8.96 25.9495 9.25 26.1795 9.6C26.4095 9.95 26.6195 10.35 26.7895 10.8C26.9595 11.25 27.1095 11.69 27.2395 12.14C27.3695 12.59 27.4695 13.02 27.5395 13.43C27.6095 13.84 27.6695 14.19 27.7095 14.47V14.48Z" fill="black"/>
<path d="M42.8795 12.72C42.9895 13.37 43.0495 14.03 43.0795 14.68C43.1095 15.33 43.0895 15.99 43.0395 16.66C43.0295 16.97 42.9895 17.32 42.9195 17.73C42.8495 18.14 42.7595 18.56 42.6395 18.99C42.5195 19.42 42.3695 19.85 42.1995 20.26C42.0295 20.67 41.8195 21.05 41.5695 21.38C41.3195 21.71 41.0395 21.98 40.7195 22.18C40.3995 22.38 40.0395 22.48 39.6395 22.48C39.1995 22.48 38.8095 22.37 38.4695 22.15C38.1295 21.93 37.8395 21.64 37.5895 21.28C37.3395 20.92 37.1395 20.51 36.9695 20.05C36.7995 19.59 36.6695 19.12 36.5595 18.65C36.4495 18.18 36.3795 17.71 36.3295 17.26C36.2795 16.81 36.2495 16.41 36.2395 16.08V15.28C36.2395 15.2 36.2195 15.14 36.1695 15.11C36.1195 15.08 36.0695 15.06 36.0195 15.06C35.9495 15.06 35.8995 15.08 35.8495 15.11C35.7995 15.14 35.7795 15.2 35.7795 15.28C35.7695 15.8 35.7095 16.38 35.6095 17.02C35.5095 17.66 35.3595 18.3 35.1695 18.94C34.9795 19.58 34.7395 20.18 34.4495 20.74C34.1595 21.3 33.8195 21.76 33.4195 22.12C33.0895 22.45 32.6895 22.63 32.2195 22.66C31.7295 22.66 31.3095 22.54 30.9795 22.3C30.6495 22.06 30.3695 21.76 30.1495 21.4C29.9295 21.04 29.7595 20.64 29.6295 20.2C29.4995 19.76 29.4095 19.34 29.3395 18.94C29.2195 18.15 29.1695 17.36 29.1895 16.57C29.2095 15.78 29.2695 14.99 29.3795 14.22C29.4195 13.87 29.4795 13.48 29.5595 13.05C29.6395 12.62 29.7495 12.17 29.8795 11.7C30.0095 11.23 30.1795 10.78 30.3695 10.34C30.5595 9.9 30.7895 9.51 31.0595 9.16C31.3295 8.81 31.6295 8.53 31.9795 8.32C32.3295 8.11 32.7195 8 33.1595 8C33.6695 8 34.1295 8.12 34.5595 8.36C34.9895 8.6 35.3695 8.92 35.7195 9.31C36.0695 9.7 36.3795 10.15 36.6595 10.66C36.9395 11.17 37.1895 11.69 37.4095 12.22C37.6295 12.75 37.8195 13.28 37.9695 13.79C38.1195 14.3 38.2495 14.77 38.3595 15.18L38.4195 15.48C38.4495 15.56 38.4594 15.61 38.4594 15.64C38.4894 15.76 38.5495 15.82 38.6395 15.82C38.7095 15.82 38.7695 15.79 38.8295 15.74C38.8895 15.69 38.9095 15.62 38.8995 15.54C38.7395 14.63 38.4895 13.71 38.1395 12.76C37.7895 11.81 37.3795 10.95 36.8995 10.16C37.1795 9.87 37.4794 9.59 37.7994 9.33C38.1194 9.07 38.4695 8.87 38.8595 8.72C39.0895 8.63 39.3295 8.57 39.5795 8.54C39.8295 8.51 40.0694 8.53 40.2994 8.58C40.6994 8.69 41.0495 8.9 41.3395 9.21C41.6295 9.52 41.8795 9.88 42.0895 10.28C42.2995 10.68 42.4595 11.1 42.5895 11.53C42.7195 11.96 42.8095 12.36 42.8795 12.72Z" fill="black"/>
<path d="M53.4495 14.24C53.4595 14.59 53.4695 14.93 53.4695 15.27C53.4695 15.61 53.4595 15.95 53.4295 16.3C53.4295 16.41 53.4295 16.51 53.4095 16.62C53.3995 16.73 53.3795 16.83 53.3695 16.94C53.2895 17.55 53.1695 18.17 52.9995 18.8C52.8295 19.43 52.5895 20 52.2695 20.52C51.9495 21.04 51.5495 21.48 51.0595 21.85C50.5695 22.22 49.9795 22.45 49.2695 22.56C48.4795 22.68 47.7095 22.61 46.9395 22.36C46.1695 22.11 45.5395 21.66 45.0495 21.02C44.8095 20.71 44.6195 20.37 44.4695 20C44.3195 19.63 44.2195 19.24 44.1595 18.84C44.0995 18.44 44.0795 18.04 44.0995 17.64C44.1195 17.24 44.1895 16.86 44.3095 16.5C44.4295 16.13 44.5995 15.79 44.8195 15.49C45.0395 15.19 45.3195 14.95 45.6695 14.76C46.1095 14.51 46.5795 14.43 47.0695 14.54C47.4195 14.62 47.6795 14.78 47.8495 15.02C48.0195 15.26 48.1195 15.55 48.1495 15.88C48.1795 16.36 48.2195 16.87 48.2795 17.4C48.3395 17.93 48.4195 18.43 48.5295 18.9C48.5395 19.01 48.5995 19.06 48.7095 19.06C48.7795 19.06 48.8395 19.03 48.8995 18.98C48.9595 18.93 48.9795 18.86 48.9495 18.78C48.7595 17.91 48.6395 17.05 48.5895 16.18V16.14C48.5895 15.99 48.5895 15.89 48.5695 15.82C48.5395 15.26 48.5395 14.71 48.5495 14.17C48.5595 13.63 48.5895 13.09 48.6295 12.54C48.6995 12.07 48.7695 11.6 48.8495 11.13C48.9295 10.66 49.0395 10.19 49.1895 9.74C49.3095 9.35 49.5295 9.02 49.8395 8.75C50.1495 8.48 50.5195 8.34 50.9295 8.34C51.2995 8.34 51.6195 8.45 51.8795 8.67C52.1395 8.89 52.3595 9.18 52.5495 9.53C52.7395 9.88 52.8895 10.28 52.9995 10.72C53.1095 11.16 53.1995 11.6 53.2595 12.04C53.3195 12.48 53.3595 12.89 53.3895 13.28C53.4195 13.67 53.4395 13.99 53.4495 14.24Z" fill="black"/>
<path d="M74.1895 15.96C74.2995 16.79 74.3195 17.64 74.2495 18.51C74.1795 19.38 73.9295 20.19 73.4895 20.92C73.1795 21.4 72.7995 21.79 72.3495 22.08C71.8995 22.37 71.3895 22.55 70.8295 22.6C70.0295 22.68 69.2695 22.57 68.5495 22.27C67.8295 21.97 67.1895 21.55 66.6295 21C66.4195 20.8 66.2395 20.6 66.0995 20.4C65.9595 20.2 65.8295 19.97 65.7095 19.7C65.5095 19.26 65.4095 18.8 65.4195 18.31C65.4195 17.82 65.5395 17.37 65.7695 16.94C65.9195 16.66 66.1095 16.43 66.3395 16.25C66.5695 16.07 66.8495 15.98 67.1695 15.98C67.4595 15.98 67.7595 16.05 68.0695 16.18C68.5795 16.41 69.0195 16.72 69.4095 17.11C69.7995 17.5 70.1895 17.89 70.5895 18.26C70.6795 18.34 70.7695 18.42 70.8495 18.5C70.9295 18.58 71.0195 18.65 71.1095 18.72C71.1495 18.73 71.1795 18.76 71.1895 18.8C71.2795 18.85 71.3695 18.84 71.4595 18.75C71.5495 18.66 71.5595 18.58 71.4895 18.5C71.1395 18.02 70.7795 17.47 70.4095 16.86C70.0395 16.25 69.6895 15.61 69.3595 14.94C69.0295 14.27 68.7495 13.6 68.5095 12.93C68.2695 12.26 68.0995 11.62 67.9895 11.02C67.9195 10.77 67.8895 10.51 67.8895 10.24C67.8895 9.97 67.9295 9.71 68.0095 9.46C68.1295 9.07 68.3395 8.8 68.6295 8.63C68.9195 8.46 69.2395 8.38 69.5895 8.38C69.8995 8.38 70.1895 8.44 70.4795 8.55C70.7695 8.66 71.0095 8.83 71.2095 9.04C71.6995 9.57 72.1195 10.1 72.4495 10.63C72.7795 11.16 73.0595 11.7 73.2795 12.26C73.4995 12.82 73.6795 13.4 73.8195 14.01C73.9595 14.62 74.0795 15.27 74.1895 15.96Z" fill="black"/>
<path d="M86.8195 14.48C86.8695 14.92 86.9195 15.37 86.9495 15.82C86.9795 16.27 86.9895 16.71 86.9495 17.14C86.9195 17.73 86.8395 18.3 86.7095 18.85C86.5795 19.4 86.3695 19.91 86.0895 20.37C85.8095 20.83 85.4495 21.23 85.0195 21.57C84.5895 21.91 84.0595 22.16 83.4295 22.32C82.9995 22.43 82.5795 22.49 82.1595 22.51C81.7395 22.53 81.3195 22.52 80.8895 22.48C80.1595 22.4 79.5195 22.22 78.9695 21.93C78.4195 21.64 77.9495 21.28 77.5595 20.83C77.1695 20.38 76.8395 19.88 76.5795 19.32C76.3195 18.76 76.0995 18.17 75.9195 17.56C75.7395 16.95 75.5995 16.32 75.4995 15.68C75.3995 15.04 75.3095 14.42 75.2295 13.82C75.1495 13.22 75.0995 12.61 75.0795 12C75.0595 11.39 75.0995 10.78 75.2095 10.18C75.2795 9.87 75.3595 9.57 75.4695 9.28C75.5795 8.99 75.7595 8.75 76.0095 8.58C76.1995 8.46 76.3995 8.38 76.6295 8.35C76.8595 8.32 77.0795 8.32 77.2895 8.35C77.6895 8.44 78.0495 8.65 78.3595 8.96C78.6695 9.27 78.9595 9.65 79.2095 10.1C79.4595 10.55 79.6795 11.04 79.8695 11.57C80.0595 12.1 80.2195 12.64 80.3595 13.17C80.4995 13.7 80.6095 14.21 80.6995 14.7C80.7895 15.19 80.8595 15.6 80.9095 15.95L81.0095 16.67C81.0195 16.74 81.0295 16.8 81.0395 16.86C81.0495 16.92 81.0595 16.98 81.0695 17.05C80.8695 17.09 80.6695 17.15 80.4795 17.22C80.2895 17.29 80.0995 17.38 79.9295 17.47C79.8595 17.51 79.8295 17.56 79.8195 17.61C79.8095 17.66 79.8195 17.71 79.8495 17.76C79.8795 17.81 79.9195 17.84 79.9695 17.86C80.0195 17.88 80.0795 17.86 80.1495 17.83C80.3395 17.74 80.5295 17.66 80.7295 17.6C80.9295 17.54 81.1395 17.5 81.3495 17.47C81.8195 17.4 82.2795 17.42 82.7495 17.53C82.8995 17.56 82.9895 17.5 83.0195 17.36C83.0495 17.22 82.9995 17.13 82.8495 17.09C82.6395 17.02 82.4195 16.99 82.2095 16.98C81.9995 16.98 81.7795 16.98 81.5495 16.99C81.5495 16.35 81.5295 15.71 81.4995 15.07C81.4695 14.43 81.4595 13.79 81.4995 13.15C81.4995 12.88 81.5095 12.53 81.5395 12.09C81.5695 11.65 81.6195 11.2 81.6895 10.74C81.7595 10.28 81.8695 9.86 82.0195 9.47C82.1695 9.08 82.3695 8.81 82.6195 8.65C82.8595 8.49 83.1395 8.41 83.4595 8.41C83.8295 8.41 84.1695 8.52 84.4795 8.74C84.7895 8.96 85.0595 9.25 85.2895 9.6C85.5195 9.95 85.7295 10.35 85.8995 10.8C86.0695 11.25 86.2195 11.69 86.3495 12.14C86.4795 12.59 86.5795 13.02 86.6495 13.43C86.7195 13.84 86.7795 14.19 86.8195 14.47V14.48Z" fill="black"/>
<path d="M101.909 12.72C102.019 13.37 102.079 14.03 102.109 14.68C102.139 15.33 102.119 15.99 102.069 16.66C102.059 16.97 102.019 17.32 101.949 17.73C101.879 18.14 101.789 18.56 101.669 18.99C101.549 19.42 101.399 19.85 101.229 20.26C101.059 20.67 100.849 21.05 100.599 21.38C100.349 21.71 100.069 21.98 99.7495 22.18C99.4295 22.38 99.0695 22.48 98.6695 22.48C98.2295 22.48 97.8395 22.37 97.4995 22.15C97.1595 21.93 96.8695 21.64 96.6195 21.28C96.3695 20.92 96.1695 20.51 95.9995 20.05C95.8295 19.59 95.6995 19.12 95.5895 18.65C95.4795 18.18 95.4095 17.71 95.3595 17.26C95.3095 16.81 95.2795 16.41 95.2695 16.08V15.28C95.2695 15.2 95.2495 15.14 95.1995 15.11C95.1495 15.08 95.0995 15.06 95.0495 15.06C94.9795 15.06 94.9295 15.08 94.8795 15.11C94.8295 15.14 94.8095 15.2 94.8095 15.28C94.7995 15.8 94.7395 16.38 94.6395 17.02C94.5395 17.66 94.3895 18.3 94.1995 18.94C94.0095 19.58 93.7695 20.18 93.4795 20.74C93.1895 21.3 92.8495 21.76 92.4495 22.12C92.1195 22.45 91.7195 22.63 91.2495 22.66C90.7595 22.66 90.3395 22.54 90.0095 22.3C89.6795 22.06 89.3995 21.76 89.1795 21.4C88.9595 21.04 88.7895 20.64 88.6595 20.2C88.5295 19.76 88.4395 19.34 88.3695 18.94C88.2495 18.15 88.1995 17.36 88.2195 16.57C88.2395 15.78 88.2995 14.99 88.4095 14.22C88.4495 13.87 88.5095 13.48 88.5895 13.05C88.6695 12.62 88.7795 12.17 88.9095 11.7C89.0395 11.23 89.2095 10.78 89.3995 10.34C89.5895 9.9 89.8195 9.51 90.0895 9.16C90.3595 8.81 90.6595 8.53 91.0095 8.32C91.3595 8.11 91.7495 8 92.1895 8C92.6995 8 93.1595 8.12 93.5895 8.36C94.0195 8.6 94.3995 8.92 94.7495 9.31C95.0995 9.7 95.4095 10.15 95.6895 10.66C95.9695 11.17 96.2195 11.69 96.4395 12.22C96.6595 12.75 96.8495 13.28 96.9995 13.79C97.1495 14.3 97.2795 14.77 97.3895 15.18L97.4495 15.48C97.4795 15.56 97.4895 15.61 97.4895 15.64C97.5195 15.76 97.5795 15.82 97.6695 15.82C97.7395 15.82 97.7995 15.79 97.8595 15.74C97.9195 15.69 97.9395 15.62 97.9295 15.54C97.7695 14.63 97.5195 13.71 97.1695 12.76C96.8195 11.81 96.4095 10.95 95.9295 10.16C96.2095 9.87 96.5095 9.59 96.8295 9.33C97.1495 9.07 97.4995 8.87 97.8895 8.72C98.1195 8.63 98.3595 8.57 98.6095 8.54C98.8595 8.51 99.0995 8.53 99.3295 8.58C99.7295 8.69 100.079 8.9 100.369 9.21C100.659 9.52 100.909 9.88 101.119 10.28C101.329 10.68 101.489 11.1 101.619 11.53C101.749 11.96 101.839 12.36 101.909 12.72Z" fill="black"/>
<path d="M58.2895 12.28C59.3443 12.28 60.1995 11.4249 60.1995 10.37C60.1995 9.31513 59.3443 8.45999 58.2895 8.45999C57.2346 8.45999 56.3795 9.31513 56.3795 10.37C56.3795 11.4249 57.2346 12.28 58.2895 12.28Z" fill="black"/>
<path d="M57.6995 12.84C55.5195 12.6 55.2695 14.78 54.9795 17.48C54.6895 20.18 55.4195 22.47 56.6295 22.6C57.8395 22.73 59.0595 20.66 59.3495 17.96C59.6395 15.26 59.8895 13.08 57.6995 12.84Z" fill="black"/>
</g>
<defs>
<clipPath id="clip0_45_252">
<rect width="102" height="29" fill="white"/>
</clipPath>
</defs>
</svg>
