<svg width="71" height="23" viewBox="0 0 71 23" fill="none" xmlns="http://www.w3.org/2000/svg">
<g clip-path="url(#clip0_45_434)">
<path d="M6.24 8.12C6.05 8.46 5.88 8.81 5.73 9.16C5.66 9.32 5.59 9.5 5.51 9.69C5.43 9.51 5.36 9.33 5.29 9.17C5.13 8.82 4.95 8.47 4.76 8.12L2.79 4.52H0L4.31 11.79V16.17H6.68V11.79L10.92 4.52H8.15L6.24 8.12Z" fill="white"/>
<path d="M17.14 12.49C17.14 12.88 17.07 13.21 16.93 13.49C16.79 13.77 16.59 13.97 16.34 14.11C16.09 14.25 15.8 14.32 15.47 14.32C14.98 14.32 14.6 14.17 14.32 13.87C14.04 13.57 13.9 13.14 13.9 12.6V7.53999H11.57V13.01C11.57 13.69 11.69 14.28 11.94 14.77C12.19 15.26 12.53 15.64 12.98 15.9C13.43 16.16 13.95 16.29 14.55 16.29C15.28 16.29 15.89 16.09 16.36 15.69C16.72 15.38 17.01 14.98 17.24 14.48L17.26 16.17H19.49V7.53999H17.15V12.49H17.14Z" fill="white"/>
<path d="M27.89 7.8C27.44 7.54 26.92 7.41 26.32 7.41C25.58 7.41 24.98 7.61 24.5 8.01C24.14 8.32 23.85 8.72 23.63 9.21L23.61 7.53H21.39V16.15H23.72V11.2C23.72 10.8 23.79 10.47 23.93 10.2C24.07 9.93 24.27 9.72 24.52 9.58C24.77 9.44 25.06 9.37 25.39 9.37C25.89 9.37 26.27 9.52 26.55 9.83C26.83 10.14 26.96 10.56 26.96 11.11V16.16H29.29V10.69C29.29 10 29.17 9.41 28.92 8.92C28.67 8.43 28.33 8.06 27.88 7.8H27.89Z" fill="white"/>
<path d="M32.38 4C32.02 4 31.71 4.12 31.46 4.35C31.21 4.58 31.08 4.87 31.08 5.21C31.08 5.55 31.21 5.83 31.46 6.07C31.71 6.31 32.02 6.42 32.38 6.42C32.74 6.42 33.04 6.3 33.29 6.07C33.54 5.84 33.67 5.55 33.67 5.21C33.67 4.87 33.55 4.59 33.29 4.35C33.03 4.11 32.74 4 32.38 4Z" fill="white"/>
<path d="M31.21 16.59C31.21 16.93 31.13 17.18 30.98 17.34C30.83 17.5 30.56 17.59 30.19 17.59H29.83V19.43H30.41C31.07 19.43 31.63 19.33 32.1 19.14C32.57 18.95 32.93 18.64 33.18 18.24C33.43 17.84 33.55 17.31 33.55 16.67V7.53999H31.21V16.59Z" fill="white"/>
<path d="M36.63 4C36.27 4 35.96 4.12 35.71 4.35C35.46 4.58 35.33 4.87 35.33 5.21C35.33 5.55 35.46 5.83 35.71 6.07C35.96 6.31 36.27 6.42 36.63 6.42C36.99 6.42 37.29 6.3 37.54 6.07C37.79 5.84 37.92 5.55 37.92 5.21C37.92 4.87 37.8 4.59 37.54 4.35C37.28 4.11 36.99 4 36.63 4Z" fill="white"/>
<path d="M37.8 7.53999H35.47V16.16H37.8V7.53999Z" fill="white"/>
<path d="M48.36 12.69C48.36 13.24 48.23 13.66 47.96 13.95C47.69 14.24 47.33 14.38 46.86 14.38C46.39 14.38 46.02 14.24 45.75 13.95C45.48 13.66 45.34 13.24 45.34 12.69V11.96H42.98V12.66C42.98 13.83 43.33 14.73 44.02 15.37C44.71 16.01 45.66 16.32 46.86 16.32C48.06 16.32 49 16 49.69 15.37C50.38 14.74 50.73 13.83 50.73 12.66V4.52H48.35V12.68L48.36 12.69Z" fill="white"/>
<path d="M58.27 12.49C58.27 12.88 58.2 13.21 58.06 13.49C57.92 13.77 57.72 13.97 57.47 14.11C57.22 14.25 56.93 14.32 56.6 14.32C56.11 14.32 55.73 14.17 55.45 13.87C55.17 13.57 55.03 13.14 55.03 12.6V7.53999H52.7V13.01C52.7 13.69 52.82 14.28 53.07 14.77C53.32 15.26 53.66 15.64 54.11 15.9C54.56 16.16 55.08 16.29 55.68 16.29C56.41 16.29 57.02 16.09 57.49 15.69C57.85 15.38 58.14 14.98 58.37 14.48L58.39 16.17H60.62V7.53999H58.28V12.49H58.27Z" fill="white"/>
<path d="M70.06 8.93C69.81 8.44 69.47 8.07 69.02 7.81C68.57 7.55 68.05 7.42 67.45 7.42C66.71 7.42 66.11 7.62 65.63 8.02C65.27 8.33 64.98 8.73 64.76 9.22L64.74 7.54H62.52V16.16H64.85V11.21C64.85 10.81 64.92 10.48 65.06 10.21C65.2 9.94 65.4 9.73 65.65 9.59C65.9 9.45 66.19 9.38 66.52 9.38C67.02 9.38 67.4 9.53 67.68 9.84C67.96 10.15 68.09 10.57 68.09 11.12V16.17H70.42V10.7C70.42 10.01 70.3 9.42 70.05 8.93H70.06Z" fill="white"/>
</g>
<defs>
<clipPath id="clip0_45_434">
<rect width="70.43" height="15.43" fill="white" transform="translate(0 4)"/>
</clipPath>
</defs>
</svg>
