<svg width="88" height="29" viewBox="0 0 88 29" fill="none" xmlns="http://www.w3.org/2000/svg">
<g clip-path="url(#clip0_45_250)">
<path d="M7.8 10.16C7.57 10.59 7.35 11.02 7.16 11.46C7.07 11.66 6.98 11.89 6.89 12.12C6.8 11.89 6.7 11.67 6.61 11.47C6.41 11.03 6.19 10.59 5.95 10.15L3.49 5.64999H0L5.39 14.73V20.2H8.35V14.73L13.65 5.64999H10.18L7.8 10.15V10.16Z" fill="black"/>
<path d="M21.43 15.62C21.43 16.11 21.34 16.52 21.16 16.87C20.98 17.22 20.73 17.47 20.42 17.65C20.11 17.83 19.74 17.91 19.33 17.91C18.72 17.91 18.24 17.72 17.89 17.34C17.54 16.96 17.37 16.43 17.37 15.75V9.43H14.46V16.27C14.46 17.12 14.61 17.86 14.92 18.47C15.23 19.08 15.66 19.56 16.22 19.88C16.78 20.2 17.43 20.37 18.18 20.37C19.1 20.37 19.85 20.12 20.44 19.62C20.89 19.24 21.26 18.73 21.54 18.1L21.57 20.21H24.35V9.42H21.43V15.61V15.62Z" fill="black"/>
<path d="M34.86 9.76C34.3 9.43 33.65 9.27 32.9 9.27C31.98 9.27 31.22 9.52 30.63 10.02C30.18 10.4 29.82 10.91 29.54 11.53L29.51 9.43H26.74V20.21H29.65V14.02C29.65 13.53 29.74 13.11 29.92 12.77C30.1 12.43 30.35 12.17 30.66 11.99C30.97 11.81 31.34 11.72 31.75 11.72C32.37 11.72 32.85 11.91 33.2 12.29C33.55 12.67 33.72 13.2 33.72 13.89V20.21H36.63V13.37C36.63 12.51 36.48 11.77 36.17 11.16C35.86 10.55 35.43 10.08 34.87 9.75L34.86 9.76Z" fill="black"/>
<path d="M39.01 20.73C39.01 21.15 38.91 21.47 38.72 21.67C38.53 21.87 38.2 21.98 37.73 21.98H37.28V24.28H38C38.82 24.28 39.53 24.16 40.11 23.91C40.69 23.66 41.15 23.29 41.46 22.78C41.77 22.27 41.93 21.62 41.92 20.82V9.42H39V20.73H39.01Z" fill="black"/>
<path d="M40.48 5C40.03 5 39.65 5.15 39.33 5.44C39.01 5.73 38.86 6.09 38.86 6.51C38.86 6.93 39.02 7.29 39.33 7.58C39.64 7.87 40.03 8.02 40.48 8.02C40.93 8.02 41.31 7.87 41.62 7.58C41.93 7.29 42.09 6.93 42.09 6.51C42.09 6.09 41.93 5.73 41.62 5.44C41.31 5.15 40.93 5 40.48 5Z" fill="black"/>
<path d="M45.79 5C45.34 5 44.96 5.15 44.64 5.44C44.32 5.73 44.17 6.09 44.17 6.51C44.17 6.93 44.33 7.29 44.64 7.58C44.95 7.87 45.34 8.02 45.79 8.02C46.24 8.02 46.62 7.87 46.93 7.58C47.24 7.29 47.4 6.93 47.4 6.51C47.4 6.09 47.24 5.73 46.93 5.44C46.62 5.15 46.24 5 45.79 5Z" fill="black"/>
<path d="M47.25 9.42H44.34V20.2H47.25V9.42Z" fill="black"/>
<path d="M60.45 15.86C60.45 16.55 60.28 17.07 59.95 17.43C59.62 17.79 59.16 17.97 58.58 17.97C58 17.97 57.53 17.79 57.19 17.43C56.85 17.07 56.68 16.55 56.68 15.86V14.95H53.73V15.83C53.73 17.29 54.16 18.42 55.03 19.21C55.9 20 57.08 20.4 58.58 20.4C60.08 20.4 61.26 20 62.12 19.21C62.98 18.42 63.41 17.29 63.41 15.83V5.64999H60.44V15.86H60.45Z" fill="black"/>
<path d="M72.84 15.62C72.84 16.11 72.75 16.52 72.57 16.87C72.39 17.22 72.14 17.47 71.83 17.65C71.52 17.83 71.15 17.91 70.74 17.91C70.13 17.91 69.65 17.72 69.3 17.34C68.95 16.96 68.78 16.43 68.78 15.75V9.43H65.87V16.27C65.87 17.12 66.02 17.86 66.33 18.47C66.64 19.08 67.07 19.56 67.63 19.88C68.19 20.2 68.84 20.37 69.59 20.37C70.51 20.37 71.26 20.12 71.85 19.62C72.3 19.24 72.67 18.73 72.95 18.1L72.98 20.21H75.76V9.42H72.84V15.61V15.62Z" fill="black"/>
<path d="M87.58 11.16C87.27 10.55 86.84 10.08 86.28 9.74999C85.72 9.41999 85.07 9.25999 84.32 9.25999C83.4 9.25999 82.64 9.50999 82.05 10.01C81.6 10.39 81.24 10.9 80.96 11.52L80.93 9.41999H78.16V20.2H81.07V14.01C81.07 13.52 81.16 13.1 81.34 12.76C81.52 12.42 81.77 12.16 82.08 11.98C82.39 11.8 82.76 11.71 83.17 11.71C83.79 11.71 84.27 11.9 84.62 12.28C84.97 12.66 85.14 13.19 85.14 13.88V20.2H88.05V13.36C88.05 12.5 87.9 11.76 87.59 11.15L87.58 11.16Z" fill="black"/>
</g>
<defs>
<clipPath id="clip0_45_250">
<rect width="88" height="29" fill="white"/>
</clipPath>
</defs>
</svg>
