<svg width="88" height="29" viewBox="0 0 88 29" fill="none" xmlns="http://www.w3.org/2000/svg">
<g clip-path="url(#clip0_45_249)">
<path d="M7.82502 10.16C7.59502 10.59 7.37502 11.02 7.18502 11.46C7.09502 11.66 7.00502 11.89 6.91502 12.12C6.82502 11.89 6.72502 11.67 6.63502 11.47C6.43502 11.03 6.21502 10.59 5.97502 10.15L3.51502 5.64999H0.0250244L5.41502 14.73V20.2H8.37502V14.73L13.675 5.64999H10.205L7.82502 10.15V10.16Z" fill="white"/>
<path d="M21.455 15.62C21.455 16.11 21.365 16.52 21.185 16.87C21.005 17.22 20.755 17.47 20.445 17.65C20.135 17.83 19.765 17.91 19.355 17.91C18.745 17.91 18.265 17.72 17.915 17.34C17.565 16.96 17.395 16.43 17.395 15.75V9.43H14.485V16.27C14.485 17.12 14.635 17.86 14.945 18.47C15.255 19.08 15.685 19.56 16.245 19.88C16.805 20.2 17.455 20.37 18.205 20.37C19.125 20.37 19.875 20.12 20.465 19.62C20.915 19.24 21.285 18.73 21.565 18.1L21.595 20.21H24.375V9.42H21.455V15.61V15.62Z" fill="white"/>
<path d="M34.885 9.76C34.325 9.43 33.675 9.27 32.925 9.27C32.005 9.27 31.245 9.52 30.655 10.02C30.205 10.4 29.845 10.91 29.565 11.53L29.535 9.43H26.765V20.21H29.675V14.02C29.675 13.53 29.765 13.11 29.945 12.77C30.125 12.43 30.375 12.17 30.685 11.99C30.995 11.81 31.365 11.72 31.775 11.72C32.395 11.72 32.875 11.91 33.225 12.29C33.575 12.67 33.745 13.2 33.745 13.89V20.21H36.655V13.37C36.655 12.51 36.505 11.77 36.195 11.16C35.885 10.55 35.455 10.08 34.895 9.75L34.885 9.76Z" fill="white"/>
<path d="M39.0351 20.73C39.0351 21.15 38.9351 21.47 38.7451 21.67C38.5551 21.87 38.2251 21.98 37.7551 21.98H37.3051V24.28H38.0251C38.8451 24.28 39.5551 24.16 40.1351 23.91C40.7151 23.66 41.1751 23.29 41.4851 22.78C41.7951 22.27 41.9551 21.62 41.9451 20.82V9.42H39.0251V20.73H39.0351Z" fill="white"/>
<path d="M40.505 5C40.055 5 39.675 5.15 39.355 5.44C39.035 5.73 38.885 6.09 38.885 6.51C38.885 6.93 39.045 7.29 39.355 7.58C39.665 7.87 40.055 8.02 40.505 8.02C40.955 8.02 41.335 7.87 41.645 7.58C41.955 7.29 42.115 6.93 42.115 6.51C42.115 6.09 41.955 5.73 41.645 5.44C41.335 5.15 40.955 5 40.505 5Z" fill="white"/>
<path d="M45.815 5C45.365 5 44.985 5.15 44.665 5.44C44.345 5.73 44.195 6.09 44.195 6.51C44.195 6.93 44.355 7.29 44.665 7.58C44.975 7.87 45.365 8.02 45.815 8.02C46.265 8.02 46.645 7.87 46.955 7.58C47.265 7.29 47.425 6.93 47.425 6.51C47.425 6.09 47.265 5.73 46.955 5.44C46.645 5.15 46.265 5 45.815 5Z" fill="white"/>
<path d="M47.275 9.42H44.365V20.2H47.275V9.42Z" fill="white"/>
<path d="M60.475 15.86C60.475 16.55 60.305 17.07 59.975 17.43C59.645 17.79 59.185 17.97 58.605 17.97C58.025 17.97 57.555 17.79 57.215 17.43C56.875 17.07 56.705 16.55 56.705 15.86V14.95H53.755V15.83C53.755 17.29 54.185 18.42 55.055 19.21C55.925 20 57.105 20.4 58.605 20.4C60.105 20.4 61.285 20 62.145 19.21C63.005 18.42 63.435 17.29 63.435 15.83V5.64999H60.465V15.86H60.475Z" fill="white"/>
<path d="M72.865 15.62C72.865 16.11 72.775 16.52 72.595 16.87C72.415 17.22 72.165 17.47 71.855 17.65C71.545 17.83 71.175 17.91 70.765 17.91C70.155 17.91 69.675 17.72 69.325 17.34C68.975 16.96 68.805 16.43 68.805 15.75V9.43H65.895V16.27C65.895 17.12 66.045 17.86 66.355 18.47C66.665 19.08 67.095 19.56 67.655 19.88C68.215 20.2 68.865 20.37 69.615 20.37C70.535 20.37 71.285 20.12 71.875 19.62C72.325 19.24 72.695 18.73 72.975 18.1L73.005 20.21H75.785V9.42H72.865V15.61V15.62Z" fill="white"/>
<path d="M87.6051 11.16C87.2951 10.55 86.8651 10.08 86.3051 9.74999C85.7451 9.41999 85.0951 9.25999 84.3451 9.25999C83.4251 9.25999 82.6651 9.50999 82.0751 10.01C81.6251 10.39 81.2651 10.9 80.9851 11.52L80.9551 9.41999H78.1851V20.2H81.0951V14.01C81.0951 13.52 81.1851 13.1 81.3651 12.76C81.5451 12.42 81.7951 12.16 82.1051 11.98C82.4151 11.8 82.7851 11.71 83.1951 11.71C83.8151 11.71 84.2951 11.9 84.6451 12.28C84.9951 12.66 85.1651 13.19 85.1651 13.88V20.2H88.0751V13.36C88.0751 12.5 87.9251 11.76 87.6151 11.15L87.6051 11.16Z" fill="white"/>
</g>
<defs>
<clipPath id="clip0_45_249">
<rect width="88" height="29" fill="white"/>
</clipPath>
</defs>
</svg>
