<svg width="71" height="23" viewBox="0 0 71 23" fill="none" xmlns="http://www.w3.org/2000/svg">
<g clip-path="url(#clip0_45_434)">
<path d="M6.24 9.12C6.05 9.46 5.88 9.81 5.73 10.16C5.66 10.32 5.59 10.5 5.51 10.69C5.43 10.51 5.36 10.33 5.29 10.17C5.13 9.82 4.95 9.47 4.76 9.12L2.79 5.52H0L4.31 12.79V17.17H6.68V12.79L10.92 5.52H8.15L6.24 9.12Z" fill="white"/>
<path d="M17.14 13.49C17.14 13.88 17.07 14.21 16.93 14.49C16.79 14.77 16.59 14.97 16.34 15.11C16.09 15.25 15.8 15.32 15.47 15.32C14.98 15.32 14.6 15.17 14.32 14.87C14.04 14.57 13.9 14.14 13.9 13.6V8.53999H11.57V14.01C11.57 14.69 11.69 15.28 11.94 15.77C12.19 16.26 12.53 16.64 12.98 16.9C13.43 17.16 13.95 17.29 14.55 17.29C15.28 17.29 15.89 17.09 16.36 16.69C16.72 16.38 17.01 15.98 17.24 15.48L17.26 17.17H19.49V8.53999H17.15V13.49H17.14Z" fill="white"/>
<path d="M27.89 8.8C27.44 8.54 26.92 8.41 26.32 8.41C25.58 8.41 24.98 8.61 24.5 9.01C24.14 9.32 23.85 9.72 23.63 10.21L23.61 8.53H21.39V17.15H23.72V12.2C23.72 11.8 23.79 11.47 23.93 11.2C24.07 10.93 24.27 10.72 24.52 10.58C24.77 10.44 25.06 10.37 25.39 10.37C25.89 10.37 26.27 10.52 26.55 10.83C26.83 11.14 26.96 11.56 26.96 12.11V17.16H29.29V11.69C29.29 11 29.17 10.41 28.92 9.92C28.67 9.43 28.33 9.06 27.88 8.8H27.89Z" fill="white"/>
<path d="M32.38 5C32.02 5 31.71 5.12 31.46 5.35C31.21 5.58 31.08 5.87 31.08 6.21C31.08 6.55 31.21 6.83 31.46 7.07C31.71 7.31 32.02 7.42 32.38 7.42C32.74 7.42 33.04 7.3 33.29 7.07C33.54 6.84 33.67 6.55 33.67 6.21C33.67 5.87 33.55 5.59 33.29 5.35C33.03 5.11 32.74 5 32.38 5Z" fill="white"/>
<path d="M31.21 17.59C31.21 17.93 31.13 18.18 30.98 18.34C30.83 18.5 30.56 18.59 30.19 18.59H29.83V20.43H30.41C31.07 20.43 31.63 20.33 32.1 20.14C32.57 19.95 32.93 19.64 33.18 19.24C33.43 18.84 33.55 18.31 33.55 17.67V8.53999H31.21V17.59Z" fill="white"/>
<path d="M36.63 5C36.27 5 35.96 5.12 35.71 5.35C35.46 5.58 35.33 5.87 35.33 6.21C35.33 6.55 35.46 6.83 35.71 7.07C35.96 7.31 36.27 7.42 36.63 7.42C36.99 7.42 37.29 7.3 37.54 7.07C37.79 6.84 37.92 6.55 37.92 6.21C37.92 5.87 37.8 5.59 37.54 5.35C37.28 5.11 36.99 5 36.63 5Z" fill="white"/>
<path d="M37.8 8.53999H35.47V17.16H37.8V8.53999Z" fill="white"/>
<path d="M48.36 13.69C48.36 14.24 48.23 14.66 47.96 14.95C47.69 15.24 47.33 15.38 46.86 15.38C46.39 15.38 46.02 15.24 45.75 14.95C45.48 14.66 45.34 14.24 45.34 13.69V12.96H42.98V13.66C42.98 14.83 43.33 15.73 44.02 16.37C44.71 17.01 45.66 17.32 46.86 17.32C48.06 17.32 49 17 49.69 16.37C50.38 15.74 50.73 14.83 50.73 13.66V5.52H48.35V13.68L48.36 13.69Z" fill="white"/>
<path d="M58.27 13.49C58.27 13.88 58.2 14.21 58.06 14.49C57.92 14.77 57.72 14.97 57.47 15.11C57.22 15.25 56.93 15.32 56.6 15.32C56.11 15.32 55.73 15.17 55.45 14.87C55.17 14.57 55.03 14.14 55.03 13.6V8.53999H52.7V14.01C52.7 14.69 52.82 15.28 53.07 15.77C53.32 16.26 53.66 16.64 54.11 16.9C54.56 17.16 55.08 17.29 55.68 17.29C56.41 17.29 57.02 17.09 57.49 16.69C57.85 16.38 58.14 15.98 58.37 15.48L58.39 17.17H60.62V8.53999H58.28V13.49H58.27Z" fill="white"/>
<path d="M70.06 9.93C69.81 9.44 69.47 9.07 69.02 8.81C68.57 8.55 68.05 8.42 67.45 8.42C66.71 8.42 66.11 8.62 65.63 9.02C65.27 9.33 64.98 9.73 64.76 10.22L64.74 8.54H62.52V17.16H64.85V12.21C64.85 11.81 64.92 11.48 65.06 11.21C65.2 10.94 65.4 10.73 65.65 10.59C65.9 10.45 66.19 10.38 66.52 10.38C67.02 10.38 67.4 10.53 67.68 10.84C67.96 11.15 68.09 11.57 68.09 12.12V17.17H70.42V11.7C70.42 11.01 70.3 10.42 70.05 9.93H70.06Z" fill="white"/>
</g>
<defs>
<clipPath id="clip0_45_434">
<rect width="70.43" height="15.43" fill="white" transform="translate(0 4)"/>
</clipPath>
</defs>
</svg>
