<svg width="88" height="29" viewBox="0 0 88 29" fill="none" xmlns="http://www.w3.org/2000/svg">
<g clip-path="url(#clip0_45_249)">
<path d="M7.82502 12.16C7.59502 12.59 7.37502 13.02 7.18502 13.46C7.09502 13.66 7.00502 13.89 6.91502 14.12C6.82502 13.89 6.72502 13.67 6.63502 13.47C6.43502 13.03 6.21502 12.59 5.97502 12.15L3.51502 7.64999H0.0250244L5.41502 16.73V22.2H8.37502V16.73L13.675 7.64999H10.205L7.82502 12.15V12.16Z" fill="white"/>
<path d="M21.455 17.62C21.455 18.11 21.365 18.52 21.185 18.87C21.005 19.22 20.755 19.47 20.445 19.65C20.135 19.83 19.765 19.91 19.355 19.91C18.745 19.91 18.265 19.72 17.915 19.34C17.565 18.96 17.395 18.43 17.395 17.75V11.43H14.485V18.27C14.485 19.12 14.635 19.86 14.945 20.47C15.255 21.08 15.685 21.56 16.245 21.88C16.805 22.2 17.455 22.37 18.205 22.37C19.125 22.37 19.875 22.12 20.465 21.62C20.915 21.24 21.285 20.73 21.565 20.1L21.595 22.21H24.375V11.42H21.455V17.61V17.62Z" fill="white"/>
<path d="M34.885 11.76C34.325 11.43 33.675 11.27 32.925 11.27C32.005 11.27 31.245 11.52 30.655 12.02C30.205 12.4 29.845 12.91 29.565 13.53L29.535 11.43H26.765V22.21H29.675V16.02C29.675 15.53 29.765 15.11 29.945 14.77C30.125 14.43 30.375 14.17 30.685 13.99C30.995 13.81 31.365 13.72 31.775 13.72C32.395 13.72 32.875 13.91 33.225 14.29C33.575 14.67 33.745 15.2 33.745 15.89V22.21H36.655V15.37C36.655 14.51 36.505 13.77 36.195 13.16C35.885 12.55 35.455 12.08 34.895 11.75L34.885 11.76Z" fill="white"/>
<path d="M39.0351 22.73C39.0351 23.15 38.9351 23.47 38.7451 23.67C38.5551 23.87 38.2251 23.98 37.7551 23.98H37.3051V26.28H38.0251C38.8451 26.28 39.5551 26.16 40.1351 25.91C40.7151 25.66 41.1751 25.29 41.4851 24.78C41.7951 24.27 41.9551 23.62 41.9451 22.82V11.42H39.0251V22.73H39.0351Z" fill="white"/>
<path d="M40.505 7C40.055 7 39.675 7.15 39.355 7.44C39.035 7.73 38.885 8.09 38.885 8.51C38.885 8.93 39.045 9.29 39.355 9.58C39.665 9.87 40.055 10.02 40.505 10.02C40.955 10.02 41.335 9.87 41.645 9.58C41.955 9.29 42.115 8.93 42.115 8.51C42.115 8.09 41.955 7.73 41.645 7.44C41.335 7.15 40.955 7 40.505 7Z" fill="white"/>
<path d="M45.815 7C45.365 7 44.985 7.15 44.665 7.44C44.345 7.73 44.195 8.09 44.195 8.51C44.195 8.93 44.355 9.29 44.665 9.58C44.975 9.87 45.365 10.02 45.815 10.02C46.265 10.02 46.645 9.87 46.955 9.58C47.265 9.29 47.425 8.93 47.425 8.51C47.425 8.09 47.265 7.73 46.955 7.44C46.645 7.15 46.265 7 45.815 7Z" fill="white"/>
<path d="M47.275 11.42H44.365V22.2H47.275V11.42Z" fill="white"/>
<path d="M60.475 17.86C60.475 18.55 60.305 19.07 59.975 19.43C59.645 19.79 59.185 19.97 58.605 19.97C58.025 19.97 57.555 19.79 57.215 19.43C56.875 19.07 56.705 18.55 56.705 17.86V16.95H53.755V17.83C53.755 19.29 54.185 20.42 55.055 21.21C55.925 22 57.105 22.4 58.605 22.4C60.105 22.4 61.285 22 62.145 21.21C63.005 20.42 63.435 19.29 63.435 17.83V7.64999H60.465V17.86H60.475Z" fill="white"/>
<path d="M72.865 17.62C72.865 18.11 72.775 18.52 72.595 18.87C72.415 19.22 72.165 19.47 71.855 19.65C71.545 19.83 71.175 19.91 70.765 19.91C70.155 19.91 69.675 19.72 69.325 19.34C68.975 18.96 68.805 18.43 68.805 17.75V11.43H65.895V18.27C65.895 19.12 66.045 19.86 66.355 20.47C66.665 21.08 67.095 21.56 67.655 21.88C68.215 22.2 68.865 22.37 69.615 22.37C70.535 22.37 71.285 22.12 71.875 21.62C72.325 21.24 72.695 20.73 72.975 20.1L73.005 22.21H75.785V11.42H72.865V17.61V17.62Z" fill="white"/>
<path d="M87.6051 13.16C87.2951 12.55 86.8651 12.08 86.3051 11.75C85.7451 11.42 85.0951 11.26 84.3451 11.26C83.4251 11.26 82.6651 11.51 82.0751 12.01C81.6251 12.39 81.2651 12.9 80.9851 13.52L80.9551 11.42H78.1851V22.2H81.0951V16.01C81.0951 15.52 81.1851 15.1 81.3651 14.76C81.5451 14.42 81.7951 14.16 82.1051 13.98C82.4151 13.8 82.7851 13.71 83.1951 13.71C83.8151 13.71 84.2951 13.9 84.6451 14.28C84.9951 14.66 85.1651 15.19 85.1651 15.88V22.2H88.0751V15.36C88.0751 14.5 87.9251 13.76 87.6151 13.15L87.6051 13.16Z" fill="white"/>
</g>
<defs>
<clipPath id="clip0_45_249">
<rect width="88" height="29" fill="white"/>
</clipPath>
</defs>
</svg>
