<svg width="79" height="23" viewBox="0 0 79 23" fill="none" xmlns="http://www.w3.org/2000/svg">
<g clip-path="url(#clip0_45_423)">
<path d="M11.12 7.28C11.24 7.52 11.3 7.77 11.29 8.05C11.28 8.33 11.23 8.6 11.15 8.85C11.07 9.11 10.93 9.37 10.74 9.63C10.55 9.89 10.36 10.13 10.16 10.35C9.78999 10.74 9.37999 11.08 8.91999 11.35C8.45999 11.63 7.96999 11.82 7.44999 11.94C7.36999 11.96 7.31999 11.97 7.29999 11.97C7.21999 11.99 7.16999 12.03 7.15999 12.09C7.14999 12.15 7.15999 12.21 7.20999 12.26C7.36999 12.48 7.53999 12.7 7.69999 12.94C7.85999 13.18 7.99999 13.42 8.11999 13.68C8.23999 13.94 8.32999 14.2 8.40999 14.48C8.47999 14.75 8.51999 15.03 8.51999 15.31C8.51999 15.79 8.38999 16.18 8.13999 16.48C7.88999 16.77 7.52999 16.99 7.07999 17.12C6.78999 17.2 6.48999 17.25 6.17999 17.26C5.86999 17.27 5.56999 17.26 5.26999 17.23C5.03999 17.19 4.80999 17.13 4.57999 17.07C4.34999 17.01 4.12999 16.89 3.93999 16.74C3.63999 16.5 3.45999 16.21 3.37999 15.85C3.30999 15.49 3.30999 15.14 3.39999 14.79C3.49999 14.33 3.67999 13.89 3.92999 13.48C4.17999 13.07 4.46999 12.7 4.79999 12.37C4.82999 12.35 4.85999 12.32 4.87999 12.29C4.90999 12.19 4.87999 12.12 4.79999 12.07H4.76999V12.05C4.76999 12.05 4.76999 12.03 4.74999 12.03H4.69999C4.24999 11.98 3.74999 11.84 3.20999 11.61C2.66999 11.38 2.16999 11.08 1.69999 10.72C1.23999 10.36 0.839989 9.95 0.519989 9.49C0.199989 9.04 0.0199888 8.56 -1.11647e-05 8.06C-0.0200112 7.71 0.0599888 7.38 0.229989 7.07C0.399989 6.76 0.649989 6.53 0.959989 6.38C1.20999 6.26 1.46999 6.18 1.75999 6.16C2.03999 6.13 2.31999 6.14 2.58999 6.16C2.83999 6.19 3.08999 6.25 3.34999 6.34C3.60999 6.43 3.84999 6.54 4.07999 6.69C4.30999 6.83 4.51999 7 4.70999 7.19C4.89999 7.38 5.03999 7.59 5.15999 7.83C5.22999 7.97 5.28999 8.13 5.33999 8.29C5.38999 8.45 5.43999 8.61 5.48999 8.78C5.56999 9.08 5.63999 9.38 5.67999 9.7C5.72999 10.01 5.77999 10.33 5.82999 10.63C5.84999 10.71 5.90999 10.75 5.99999 10.75C6.09999 10.75 6.14999 10.71 6.14999 10.63L6.16999 10.54C6.24999 10.03 6.35999 9.52 6.48999 9.03C6.61999 8.54 6.83999 8.07 7.15999 7.64C7.43999 7.25 7.74999 6.94 8.08999 6.71C8.42999 6.48 8.84999 6.37 9.34999 6.37C9.68999 6.37 10.03 6.44 10.38 6.59C10.73 6.74 10.98 6.97 11.14 7.29L11.12 7.28Z" fill="white"/>
<path d="M21.36 11C21.4 11.34 21.43 11.68 21.46 12.03C21.49 12.38 21.49 12.72 21.46 13.05C21.44 13.5 21.38 13.94 21.27 14.37C21.17 14.8 21.01 15.19 20.79 15.54C20.57 15.9 20.3 16.2 19.96 16.47C19.63 16.73 19.22 16.93 18.73 17.05C18.4 17.13 18.07 17.18 17.75 17.2C17.43 17.22 17.1 17.2 16.77 17.18C16.2 17.12 15.71 16.98 15.29 16.76C14.87 16.54 14.51 16.26 14.2 15.91C13.9 15.57 13.64 15.18 13.44 14.74C13.24 14.3 13.07 13.85 12.93 13.38C12.79 12.91 12.68 12.42 12.61 11.93C12.53 11.44 12.46 10.96 12.4 10.49C12.34 10.03 12.3 9.56 12.28 9.08C12.26 8.61 12.3 8.14 12.38 7.67C12.43 7.43 12.5 7.2 12.58 6.97C12.66 6.74 12.8 6.56 13 6.43C13.14 6.34 13.3 6.28 13.48 6.25C13.66 6.22 13.83 6.23 13.99 6.25C14.3 6.32 14.57 6.48 14.82 6.72C15.06 6.96 15.28 7.26 15.48 7.6C15.68 7.94 15.85 8.32 15.99 8.74C16.13 9.16 16.26 9.56 16.37 9.98C16.48 10.39 16.57 10.79 16.63 11.16C16.7 11.54 16.75 11.86 16.79 12.13L16.87 12.69C16.88 12.74 16.89 12.79 16.89 12.84C16.89 12.89 16.9 12.94 16.91 12.99C16.76 13.02 16.6 13.06 16.45 13.12C16.3 13.18 16.16 13.24 16.02 13.31C15.97 13.34 15.94 13.38 15.94 13.42C15.94 13.46 15.94 13.5 15.96 13.54C15.98 13.58 16.01 13.6 16.05 13.62C16.09 13.64 16.14 13.62 16.19 13.6C16.33 13.53 16.48 13.47 16.64 13.42C16.79 13.37 16.95 13.34 17.12 13.32C17.48 13.27 17.84 13.28 18.2 13.37C18.31 13.39 18.38 13.35 18.41 13.24C18.44 13.13 18.39 13.06 18.28 13.03C18.11 12.98 17.95 12.95 17.79 12.94C17.63 12.94 17.46 12.94 17.28 12.94C17.28 12.45 17.27 11.95 17.24 11.46C17.21 10.97 17.21 10.47 17.24 9.98C17.24 9.77 17.24 9.5 17.27 9.16C17.29 8.82 17.33 8.47 17.39 8.12C17.45 7.77 17.53 7.44 17.64 7.14C17.75 6.84 17.91 6.63 18.1 6.51C18.29 6.39 18.5 6.32 18.75 6.32C19.04 6.32 19.3 6.4 19.54 6.57C19.78 6.74 19.99 6.96 20.17 7.23C20.35 7.5 20.51 7.81 20.64 8.16C20.77 8.5 20.89 8.85 20.99 9.19C21.09 9.53 21.16 9.87 21.22 10.19C21.28 10.51 21.32 10.78 21.35 10.99L21.36 11Z" fill="white"/>
<path d="M33.08 9.63999C33.16 10.14 33.21 10.65 33.23 11.15C33.25 11.65 33.24 12.16 33.2 12.68C33.2 12.92 33.16 13.19 33.11 13.51C33.06 13.82 32.99 14.15 32.89 14.48C32.8 14.81 32.68 15.14 32.55 15.46C32.42 15.78 32.25 16.07 32.06 16.32C31.87 16.58 31.65 16.78 31.4 16.94C31.15 17.09 30.87 17.17 30.57 17.17C30.23 17.17 29.93 17.09 29.67 16.92C29.41 16.75 29.18 16.53 28.99 16.25C28.8 15.97 28.64 15.66 28.51 15.3C28.38 14.94 28.28 14.58 28.19 14.22C28.11 13.85 28.05 13.5 28.01 13.15C27.97 12.8 27.95 12.5 27.94 12.24V11.62C27.94 11.56 27.92 11.51 27.89 11.49C27.85 11.46 27.81 11.45 27.77 11.45C27.72 11.45 27.67 11.46 27.64 11.49C27.6 11.52 27.59 11.56 27.59 11.62C27.58 12.02 27.54 12.47 27.46 12.96C27.38 13.45 27.27 13.95 27.12 14.44C26.97 14.93 26.79 15.4 26.56 15.83C26.34 16.26 26.07 16.62 25.77 16.9C25.51 17.16 25.2 17.3 24.84 17.32C24.46 17.32 24.14 17.23 23.88 17.04C23.62 16.85 23.41 16.62 23.24 16.35C23.07 16.08 22.94 15.76 22.84 15.42C22.74 15.08 22.67 14.76 22.62 14.45C22.53 13.84 22.49 13.23 22.5 12.62C22.52 12.01 22.56 11.4 22.65 10.81C22.68 10.54 22.73 10.24 22.79 9.90999C22.85 9.57999 22.93 9.22999 23.04 8.86999C23.14 8.50999 23.27 8.15999 23.42 7.81999C23.57 7.47999 23.75 7.17999 23.95 6.90999C24.15 6.63999 24.39 6.42999 24.66 6.25999C24.93 6.09999 25.23 6.00999 25.57 6.00999C25.96 6.00999 26.32 6.09999 26.65 6.28999C26.98 6.47999 27.28 6.71999 27.55 7.01999C27.82 7.31999 28.06 7.66999 28.28 8.05999C28.5 8.44999 28.69 8.84999 28.86 9.25999C29.03 9.66999 29.17 10.08 29.29 10.47C29.41 10.86 29.51 11.22 29.59 11.54L29.64 11.77C29.66 11.83 29.67 11.87 29.67 11.89C29.69 11.98 29.74 12.03 29.81 12.03C29.86 12.03 29.91 12.01 29.96 11.97C30.01 11.93 30.02 11.88 30.01 11.82C29.89 11.12 29.69 10.4 29.42 9.66999C29.15 8.93999 28.83 8.26999 28.46 7.65999C28.68 7.42999 28.91 7.21999 29.16 7.01999C29.41 6.81999 29.68 6.65999 29.98 6.54999C30.15 6.47999 30.34 6.42999 30.54 6.40999C30.74 6.38999 30.92 6.39999 31.1 6.43999C31.41 6.51999 31.68 6.67999 31.9 6.92999C32.13 7.16999 32.32 7.44999 32.48 7.75999C32.64 8.06999 32.77 8.38999 32.87 8.72999C32.97 9.05999 33.04 9.36999 33.09 9.64999L33.08 9.63999Z" fill="white"/>
<path d="M41.24 10.82C41.25 11.09 41.26 11.35 41.26 11.62C41.26 11.89 41.25 12.15 41.23 12.42C41.23 12.5 41.23 12.58 41.21 12.67C41.2 12.75 41.19 12.83 41.18 12.92C41.12 13.39 41.02 13.87 40.89 14.36C40.76 14.84 40.57 15.29 40.33 15.69C40.09 16.09 39.77 16.43 39.4 16.72C39.03 17.01 38.56 17.19 38.02 17.27C37.41 17.36 36.81 17.31 36.22 17.12C35.63 16.92 35.14 16.58 34.76 16.09C34.57 15.85 34.43 15.59 34.31 15.3C34.2 15.01 34.12 14.71 34.07 14.4C34.02 14.09 34.01 13.78 34.02 13.47C34.04 13.16 34.09 12.87 34.18 12.59C34.27 12.3 34.4 12.04 34.57 11.81C34.74 11.58 34.96 11.39 35.23 11.25C35.57 11.05 35.93 11 36.31 11.08C36.58 11.14 36.78 11.27 36.91 11.45C37.04 11.64 37.12 11.86 37.14 12.11C37.16 12.48 37.19 12.87 37.24 13.28C37.29 13.69 37.35 14.08 37.43 14.44C37.44 14.52 37.49 14.56 37.57 14.56C37.62 14.56 37.67 14.54 37.72 14.5C37.77 14.46 37.78 14.41 37.76 14.35C37.62 13.68 37.52 13.01 37.48 12.34V12.31C37.48 12.2 37.48 12.11 37.46 12.06C37.44 11.63 37.43 11.2 37.44 10.79C37.44 10.37 37.47 9.94999 37.5 9.52999C37.55 9.16999 37.61 8.80999 37.67 8.43999C37.73 8.06999 37.82 7.71999 37.93 7.36999C38.02 7.06999 38.19 6.81999 38.43 6.60999C38.67 6.39999 38.95 6.28999 39.27 6.28999C39.56 6.28999 39.8 6.37999 40 6.53999C40.2 6.70999 40.37 6.92999 40.52 7.19999C40.66 7.46999 40.78 7.77999 40.87 8.11999C40.96 8.45999 41.02 8.79999 41.07 9.13999C41.12 9.47999 41.15 9.79999 41.17 10.1C41.19 10.4 41.21 10.65 41.22 10.84L41.24 10.82Z" fill="white"/>
<path d="M57.26 12.15C57.34 12.79 57.36 13.44 57.31 14.12C57.26 14.79 57.06 15.42 56.72 15.98C56.48 16.35 56.19 16.65 55.84 16.88C55.49 17.11 55.1 17.24 54.67 17.28C54.05 17.34 53.47 17.26 52.91 17.03C52.35 16.8 51.86 16.47 51.43 16.05C51.26 15.9 51.13 15.74 51.02 15.59C50.91 15.44 50.81 15.26 50.72 15.05C50.57 14.71 50.49 14.35 50.5 13.98C50.5 13.6 50.6 13.25 50.77 12.92C50.88 12.7 51.03 12.53 51.21 12.39C51.39 12.25 51.6 12.18 51.85 12.18C52.08 12.18 52.31 12.23 52.54 12.33C52.93 12.5 53.28 12.74 53.57 13.05C53.87 13.35 54.17 13.65 54.48 13.94C54.55 14 54.62 14.06 54.68 14.13C54.74 14.2 54.81 14.25 54.88 14.3C54.91 14.31 54.93 14.33 54.94 14.36C55.01 14.4 55.08 14.39 55.15 14.32C55.22 14.25 55.22 14.19 55.17 14.13C54.9 13.76 54.62 13.34 54.34 12.86C54.05 12.39 53.78 11.89 53.53 11.38C53.28 10.87 53.06 10.35 52.87 9.83C52.68 9.31 52.55 8.82 52.47 8.36C52.42 8.16 52.39 7.96 52.39 7.76C52.39 7.56 52.42 7.35 52.48 7.16C52.57 6.86 52.73 6.65 52.96 6.52C53.19 6.39 53.43 6.33 53.7 6.33C53.94 6.33 54.17 6.37 54.39 6.46C54.61 6.55 54.8 6.67 54.95 6.84C55.33 7.25 55.65 7.66 55.91 8.07C56.17 8.48 56.38 8.9 56.55 9.33C56.72 9.76 56.86 10.21 56.97 10.68C57.08 11.15 57.17 11.65 57.26 12.19V12.15Z" fill="white"/>
<path d="M67.01 11C67.05 11.34 67.08 11.68 67.11 12.03C67.14 12.38 67.14 12.72 67.11 13.05C67.09 13.5 67.03 13.94 66.92 14.37C66.82 14.8 66.66 15.19 66.44 15.54C66.22 15.9 65.95 16.2 65.61 16.47C65.28 16.73 64.87 16.93 64.38 17.05C64.05 17.13 63.72 17.18 63.4 17.2C63.08 17.22 62.75 17.2 62.42 17.18C61.85 17.12 61.36 16.98 60.94 16.76C60.52 16.54 60.16 16.26 59.85 15.91C59.55 15.57 59.29 15.18 59.09 14.74C58.89 14.3 58.72 13.85 58.58 13.38C58.44 12.91 58.33 12.42 58.26 11.93C58.18 11.44 58.11 10.96 58.05 10.49C57.99 10.03 57.95 9.56 57.93 9.08C57.91 8.61 57.95 8.14 58.03 7.67C58.08 7.43 58.15 7.2 58.23 6.97C58.31 6.74 58.45 6.56 58.65 6.43C58.79 6.34 58.95 6.28 59.13 6.25C59.31 6.22 59.48 6.23 59.64 6.25C59.95 6.32 60.22 6.48 60.47 6.72C60.71 6.96 60.93 7.26 61.13 7.6C61.33 7.94 61.5 8.32 61.64 8.74C61.78 9.16 61.91 9.56 62.02 9.98C62.13 10.39 62.22 10.79 62.28 11.16C62.35 11.54 62.4 11.86 62.44 12.13L62.52 12.69C62.53 12.74 62.54 12.79 62.54 12.84C62.54 12.89 62.55 12.94 62.56 12.99C62.41 13.02 62.25 13.06 62.1 13.12C61.95 13.18 61.81 13.24 61.67 13.31C61.62 13.34 61.59 13.38 61.59 13.42C61.59 13.46 61.59 13.5 61.61 13.54C61.63 13.58 61.66 13.6 61.7 13.62C61.74 13.64 61.79 13.62 61.84 13.6C61.98 13.53 62.13 13.47 62.29 13.42C62.44 13.37 62.6 13.34 62.77 13.32C63.13 13.27 63.49 13.28 63.85 13.37C63.96 13.39 64.03 13.35 64.06 13.24C64.09 13.13 64.04 13.06 63.93 13.03C63.76 12.98 63.6 12.95 63.44 12.94C63.28 12.94 63.11 12.94 62.93 12.94C62.93 12.45 62.92 11.95 62.89 11.46C62.86 10.97 62.86 10.47 62.89 9.98C62.89 9.77 62.89 9.5 62.92 9.16C62.94 8.82 62.98 8.47 63.04 8.12C63.1 7.77 63.18 7.44 63.29 7.14C63.4 6.84 63.56 6.63 63.75 6.51C63.94 6.39 64.15 6.32 64.4 6.32C64.69 6.32 64.95 6.4 65.19 6.57C65.43 6.74 65.64 6.96 65.82 7.23C66 7.5 66.16 7.81 66.29 8.16C66.42 8.5 66.54 8.85 66.64 9.19C66.74 9.53 66.81 9.87 66.87 10.19C66.93 10.51 66.97 10.78 67 10.99L67.01 11Z" fill="white"/>
<path d="M78.66 9.63999C78.74 10.14 78.79 10.65 78.81 11.15C78.83 11.65 78.82 12.16 78.78 12.68C78.78 12.92 78.74 13.19 78.69 13.51C78.64 13.82 78.57 14.15 78.47 14.48C78.38 14.81 78.26 15.14 78.13 15.46C78 15.78 77.83 16.07 77.64 16.32C77.45 16.58 77.23 16.78 76.98 16.94C76.73 17.09 76.45 17.17 76.15 17.17C75.81 17.17 75.51 17.09 75.25 16.92C74.99 16.75 74.76 16.53 74.57 16.25C74.38 15.97 74.22 15.66 74.09 15.3C73.96 14.94 73.86 14.58 73.77 14.22C73.69 13.85 73.63 13.5 73.59 13.15C73.55 12.8 73.53 12.5 73.52 12.24V11.62C73.52 11.56 73.5 11.51 73.47 11.49C73.43 11.46 73.39 11.45 73.35 11.45C73.3 11.45 73.25 11.46 73.22 11.49C73.18 11.52 73.17 11.56 73.17 11.62C73.16 12.02 73.12 12.47 73.04 12.96C72.96 13.45 72.85 13.95 72.7 14.44C72.55 14.93 72.37 15.4 72.14 15.83C71.92 16.26 71.65 16.62 71.35 16.9C71.09 17.16 70.78 17.3 70.42 17.32C70.04 17.32 69.72 17.23 69.46 17.04C69.2 16.85 68.99 16.62 68.82 16.35C68.65 16.08 68.52 15.76 68.42 15.42C68.32 15.08 68.25 14.76 68.2 14.45C68.11 13.84 68.07 13.23 68.08 12.62C68.1 12.01 68.14 11.4 68.23 10.81C68.26 10.54 68.31 10.24 68.37 9.90999C68.43 9.57999 68.51 9.22999 68.62 8.86999C68.72 8.50999 68.85 8.15999 69 7.81999C69.15 7.47999 69.33 7.17999 69.53 6.90999C69.73 6.63999 69.97 6.42999 70.24 6.25999C70.51 6.09999 70.81 6.00999 71.15 6.00999C71.54 6.00999 71.9 6.09999 72.23 6.28999C72.56 6.47999 72.86 6.71999 73.13 7.01999C73.4 7.31999 73.64 7.66999 73.86 8.05999C74.08 8.44999 74.27 8.84999 74.44 9.25999C74.61 9.66999 74.75 10.08 74.87 10.47C74.99 10.86 75.09 11.22 75.17 11.54L75.22 11.77C75.24 11.83 75.25 11.87 75.25 11.89C75.27 11.98 75.32 12.03 75.39 12.03C75.44 12.03 75.49 12.01 75.54 11.97C75.59 11.93 75.6 11.88 75.59 11.82C75.47 11.12 75.27 10.4 75 9.66999C74.73 8.93999 74.41 8.26999 74.04 7.65999C74.26 7.42999 74.49 7.21999 74.74 7.01999C74.99 6.81999 75.26 6.65999 75.56 6.54999C75.73 6.47999 75.92 6.42999 76.12 6.40999C76.32 6.38999 76.5 6.39999 76.68 6.43999C76.99 6.51999 77.26 6.67999 77.48 6.92999C77.71 7.16999 77.9 7.44999 78.06 7.75999C78.22 8.06999 78.35 8.38999 78.45 8.72999C78.55 9.05999 78.62 9.36999 78.67 9.64999L78.66 9.63999Z" fill="white"/>
<path d="M44.98 9.3C45.7919 9.3 46.45 8.64186 46.45 7.83C46.45 7.01814 45.7919 6.36 44.98 6.36C44.1682 6.36 43.51 7.01814 43.51 7.83C43.51 8.64186 44.1682 9.3 44.98 9.3Z" fill="white"/>
<path d="M44.84 9.76999C42.84 9.54999 42.65 11.24 42.42 13.32C42.19 15.4 42.9 17.19 44.01 17.31C45.12 17.43 46.2 15.84 46.43 13.76C46.66 11.68 46.84 9.98999 44.84 9.76999Z" fill="white"/>
</g>
<defs>
<clipPath id="clip0_45_423">
<rect width="78.82" height="11.32" fill="white" transform="translate(0 6)"/>
</clipPath>
</defs>
</svg>
